<?xml version="1.0" standalone="no"?>
<!DOCTYPE svg PUBLIC "-//W3C//DTD SVG 20010904//EN"
 "http://www.w3.org/TR/2001/REC-SVG-20010904/DTD/svg10.dtd">
<svg version="1.0" xmlns="http://www.w3.org/2000/svg"
 width="1808.000000pt" height="1808.000000pt" viewBox="0 0 1808.000000 1808.000000"
 preserveAspectRatio="xMidYMid meet">
<metadata>
Created by potrace 1.11, written by Peter Selinger 2001-2013
</metadata>
<g transform="translate(0.000000,1808.000000) scale(0.100000,-0.100000)"
fill="#000000" stroke="none">
<path d="M8668 18075 c-2 -1 -61 -6 -133 -9 -71 -4 -152 -9 -180 -11 -128 -10
-199 -17 -215 -20 -9 -2 -50 -6 -92 -9 -41 -4 -85 -8 -96 -11 -11 -2 -49 -6
-84 -10 -35 -3 -70 -8 -78 -10 -8 -2 -35 -7 -60 -10 -25 -3 -56 -8 -70 -10
-180 -28 -244 -40 -354 -61 -162 -32 -138 -27 -296 -63 -74 -17 -211 -51 -305
-77 -93 -25 -183 -49 -200 -54 -218 -58 -788 -262 -1020 -365 -16 -7 -57 -25
-90 -40 -33 -15 -76 -34 -95 -42 -91 -41 -464 -226 -535 -266 -44 -24 -111
-61 -150 -82 -337 -185 -808 -499 -1130 -753 -5 -4 -30 -23 -55 -42 -25 -19
-47 -37 -50 -40 -3 -3 -41 -35 -85 -70 -44 -36 -85 -69 -91 -75 -6 -5 -35 -31
-65 -57 -30 -25 -65 -56 -79 -68 -215 -186 -611 -583 -817 -819 -21 -24 -46
-53 -56 -65 -11 -12 -35 -41 -55 -65 -21 -25 -51 -61 -68 -80 -54 -63 -246
-311 -340 -441 -307 -424 -527 -786 -763 -1255 -131 -261 -145 -290 -243 -520
-54 -126 -82 -195 -165 -415 -220 -581 -409 -1365 -487 -2020 -17 -141 -24
-211 -31 -310 -4 -47 -8 -95 -10 -108 -26 -164 -26 -1065 0 -1362 1 -19 6 -71
9 -115 4 -44 9 -91 11 -105 3 -23 13 -117 20 -195 2 -16 6 -50 9 -75 4 -25 13
-92 22 -150 15 -110 24 -162 49 -295 8 -44 17 -93 19 -109 35 -204 209 -894
256 -1011 5 -11 32 -90 60 -175 86 -256 201 -550 296 -758 19 -41 34 -76 34
-79 0 -23 328 -660 359 -697 8 -9 11 -16 8 -16 -3 0 31 -60 75 -132 45 -73 88
-145 97 -161 27 -47 205 -322 211 -327 3 -3 37 -50 74 -105 97 -140 411 -554
446 -585 3 -3 43 -50 90 -105 46 -55 89 -105 95 -111 5 -6 44 -49 85 -95 142
-159 555 -565 710 -699 14 -12 39 -34 55 -48 28 -25 191 -162 225 -189 8 -6
42 -33 75 -60 59 -48 187 -146 335 -255 142 -105 407 -280 645 -425 407 -248
908 -492 1440 -699 129 -50 524 -184 615 -208 30 -8 93 -26 140 -39 162 -48
611 -155 715 -172 11 -1 85 -14 165 -28 80 -14 162 -28 183 -31 20 -3 52 -8
70 -11 136 -20 401 -51 527 -61 41 -3 89 -7 105 -9 231 -27 1055 -27 1365 0
25 2 79 7 120 10 41 3 89 8 105 10 17 2 57 7 90 10 124 12 398 48 460 61 11 3
36 7 55 10 60 9 353 64 390 73 19 5 163 41 320 80 330 83 301 75 494 135 255
80 662 231 846 313 25 11 65 29 90 40 139 61 215 97 405 194 116 58 230 117
255 131 25 13 77 42 115 63 263 145 670 409 945 613 96 72 180 134 185 139 22
18 74 59 110 88 22 17 58 46 80 65 23 19 61 51 86 72 65 53 159 136 289 253
144 131 542 538 660 675 12 14 43 50 69 80 27 30 70 82 97 115 27 33 53 65 59
71 12 13 115 143 185 234 27 36 53 70 58 75 35 44 214 299 297 425 271 411
529 878 709 1290 21 47 48 108 61 135 75 165 233 593 304 825 23 74 50 162 61
195 18 59 41 139 46 161 1 6 18 76 39 155 20 79 38 151 40 160 2 9 13 61 25
115 12 55 23 108 26 119 8 42 53 282 58 315 20 125 46 303 51 350 3 30 8 65
10 76 3 12 7 50 10 85 3 35 8 80 11 99 3 19 7 69 10 110 3 41 7 91 9 110 27
262 27 1037 0 1355 -2 28 -7 84 -11 125 -12 149 -23 254 -29 290 -2 14 -7 49
-10 79 -4 30 -8 61 -10 70 -2 9 -6 44 -10 76 -4 33 -9 69 -11 80 -7 36 -13 69
-19 115 -10 69 -81 423 -105 525 -12 50 -23 97 -25 105 -2 8 -17 69 -34 135
-18 66 -33 127 -35 135 -52 209 -224 713 -339 996 -135 330 -454 985 -505
1036 -7 7 -12 16 -12 21 0 4 -26 52 -57 105 -32 53 -62 105 -68 114 -22 37
-92 148 -164 258 -42 63 -80 122 -86 131 -44 71 -331 462 -406 554 -172 209
-306 366 -438 510 -133 145 -527 530 -661 645 -14 12 -38 34 -55 48 -26 24
-183 155 -225 189 -149 119 -263 207 -410 315 -89 66 -437 298 -530 354 -36
21 -67 41 -70 44 -3 3 -16 11 -30 19 -14 8 -77 45 -140 81 -175 101 -219 125
-425 230 -501 257 -989 449 -1590 629 -80 23 -417 111 -455 118 -14 2 -42 8
-63 14 -87 23 -502 101 -610 114 -23 3 -49 7 -57 9 -8 3 -42 8 -75 12 -33 3
-71 8 -85 10 -60 7 -128 15 -160 19 -115 13 -140 15 -190 19 -59 6 -161 14
-275 22 -74 6 -901 14 -907 9z m747 -2129 c65 -4 137 -9 160 -11 47 -4 175
-16 225 -21 41 -4 124 -13 160 -19 14 -2 45 -6 70 -10 25 -4 56 -8 70 -10 39
-5 113 -17 135 -21 11 -2 32 -6 47 -9 78 -14 231 -46 289 -59 36 -9 74 -17 85
-19 10 -1 24 -5 29 -8 6 -4 28 -10 50 -13 57 -11 267 -70 425 -121 759 -245
1397 -577 2065 -1075 55 -41 102 -77 105 -80 3 -3 48 -40 100 -83 52 -42 111
-90 130 -108 19 -17 64 -56 100 -87 88 -76 449 -438 536 -536 38 -43 74 -83
79 -90 224 -249 569 -729 737 -1023 37 -67 56 -99 81 -143 38 -64 236 -459
280 -557 103 -231 249 -634 322 -888 33 -113 102 -388 110 -435 3 -19 10 -51
15 -70 11 -43 14 -58 45 -240 13 -80 27 -167 30 -195 4 -27 8 -57 10 -65 2 -8
7 -43 10 -78 4 -35 8 -71 10 -80 1 -9 6 -60 10 -112 4 -52 9 -102 10 -110 2
-9 7 -90 11 -180 15 -321 7 -721 -21 -1000 -3 -30 -7 -78 -10 -105 -2 -28 -6
-64 -9 -80 -2 -17 -8 -55 -11 -85 -3 -30 -8 -62 -10 -70 -2 -8 -7 -37 -10 -65
-6 -55 -25 -165 -56 -320 -116 -585 -318 -1174 -586 -1710 -69 -137 -90 -177
-158 -300 -223 -404 -547 -858 -879 -1230 -100 -113 -457 -470 -555 -555 -41
-36 -79 -69 -85 -75 -236 -213 -671 -524 -1011 -724 -77 -45 -151 -88 -165
-96 -45 -27 -453 -230 -530 -264 -267 -119 -662 -263 -895 -326 -86 -24 -395
-103 -425 -109 -198 -40 -334 -65 -375 -70 -27 -4 -57 -9 -65 -11 -8 -2 -37
-6 -65 -10 -27 -3 -61 -7 -75 -10 -14 -2 -45 -7 -70 -9 -25 -3 -63 -7 -85 -10
-347 -43 -968 -53 -1290 -21 -22 2 -71 7 -110 10 -79 7 -124 11 -240 26 -150
19 -153 20 -243 35 -12 2 -50 9 -85 14 -139 24 -321 63 -472 101 -88 23 -167
42 -175 44 -204 51 -645 209 -935 335 -113 49 -405 192 -487 238 -21 12 -68
38 -105 58 -90 49 -340 201 -379 231 -17 13 -36 23 -42 23 -6 0 -12 3 -14 8
-1 4 -46 36 -98 71 -487 329 -1074 866 -1425 1306 -22 28 -45 55 -51 60 -5 6
-23 28 -39 50 -16 22 -32 42 -35 45 -12 11 -180 240 -252 345 -102 148 -242
375 -335 543 -74 133 -229 441 -267 532 -10 25 -30 70 -43 100 -129 290 -318
861 -368 1110 -2 8 -8 33 -13 55 -10 36 -52 241 -66 320 -3 17 -8 39 -10 50
-2 11 -7 45 -11 75 -4 30 -9 64 -11 75 -5 22 -21 143 -30 215 -3 25 -7 55 -9
66 -2 12 -6 59 -10 105 -4 46 -8 102 -10 124 -23 252 -23 808 0 1060 2 28 7
77 10 110 14 153 21 217 30 265 2 11 6 43 9 72 4 29 8 64 11 78 2 14 11 68 20
120 9 52 19 109 22 125 10 59 54 262 79 360 14 55 27 108 29 118 9 44 81 282
117 387 22 63 41 122 43 130 15 57 135 359 210 525 61 138 212 440 280 560
133 239 368 598 514 785 40 52 82 106 104 134 22 30 164 202 182 222 5 6 44
49 85 95 83 94 424 437 511 514 163 145 229 201 374 314 72 56 135 105 140
109 6 4 53 38 105 75 52 38 103 75 113 83 10 8 29 20 43 26 13 6 24 15 24 20
0 4 5 8 10 8 6 0 32 15 58 33 26 18 103 67 172 109 443 269 910 488 1370 643
207 69 323 105 341 105 9 0 19 3 23 7 3 4 12 8 19 9 7 1 59 14 117 29 58 15
113 29 123 31 10 2 26 5 35 8 9 3 32 8 51 11 19 3 37 8 41 10 3 2 17 6 31 9
93 17 207 39 224 42 45 9 274 43 325 49 30 3 66 7 80 10 52 9 98 14 180 20 47
3 103 8 125 10 22 2 108 7 190 11 83 3 151 7 152 8 5 4 446 -2 548 -8z"/>
<path d="M11147 12364 c-1 -1 -56 -4 -122 -8 -66 -3 -132 -8 -148 -11 -15 -3
-53 -9 -85 -15 -108 -19 -151 -30 -252 -62 -134 -43 -318 -141 -420 -224 -54
-44 -190 -185 -208 -216 -9 -16 -20 -28 -24 -28 -4 0 -8 -6 -8 -14 0 -8 -4
-16 -8 -18 -14 -5 -80 -122 -126 -219 -70 -152 -108 -278 -172 -574 -3 -11 -9
-40 -14 -65 -5 -25 -25 -117 -44 -205 -19 -88 -37 -171 -40 -185 -2 -14 -34
-162 -71 -330 -36 -168 -69 -316 -71 -330 -3 -14 -20 -95 -39 -180 -32 -147
-82 -382 -91 -425 -5 -29 -44 -206 -51 -235 -3 -14 -7 -32 -9 -40 -2 -8 -6
-31 -10 -50 -4 -19 -8 -40 -10 -47 -1 -6 -11 -53 -23 -105 -11 -51 -23 -104
-25 -118 -2 -14 -16 -77 -30 -140 -14 -63 -39 -178 -55 -255 -17 -77 -49 -222
-71 -323 -22 -101 -42 -198 -45 -215 -3 -18 -8 -39 -10 -47 -2 -8 -6 -26 -9
-40 -3 -14 -21 -97 -40 -185 -112 -520 -166 -775 -172 -815 -8 -61 -9 -244 -1
-300 10 -74 46 -181 83 -248 30 -53 120 -155 178 -200 66 -52 244 -126 331
-137 17 -3 53 -9 80 -14 31 -6 542 -10 1365 -10 1068 1 1329 3 1391 15 228 41
446 151 622 313 51 47 167 186 167 200 0 6 3 11 8 11 8 0 10 3 69 118 42 82
85 204 99 277 4 22 8 45 9 50 2 6 8 37 16 70 7 33 13 65 15 70 2 10 26 122 30
140 12 52 48 226 60 290 8 44 17 88 20 97 5 16 -76 17 -1208 16 -863 0 -1213
3 -1216 11 -2 6 8 66 23 133 45 208 55 252 59 273 3 11 12 56 22 100 21 102
19 90 34 163 7 35 18 66 24 68 6 2 337 5 736 7 399 2 734 6 745 9 11 4 41 11
67 17 62 14 153 49 208 79 65 35 113 65 127 77 6 5 26 21 44 35 103 78 220
225 291 364 39 77 93 228 103 290 3 17 10 47 16 67 5 21 13 57 18 80 11 54
109 485 117 517 6 20 3 22 -27 23 -19 0 -510 0 -1091 1 -582 0 -1058 1 -1058
3 0 6 81 383 90 420 6 22 35 155 65 295 31 140 58 256 60 258 2 3 388 5 857 7
469 1 862 4 873 7 11 3 40 9 65 14 25 4 47 8 50 9 3 1 21 5 40 9 64 15 213 78
288 122 217 129 379 305 486 529 28 60 46 103 51 125 1 3 6 23 13 45 6 22 13
51 16 65 2 14 16 79 30 145 15 66 42 194 60 285 19 91 42 196 50 234 9 38 14
71 11 75 -5 4 -3172 9 -3178 5z"/>
<path d="M6297 12344 c-1 -1 -51 -5 -112 -8 -133 -8 -195 -16 -321 -42 -67
-13 -202 -58 -284 -93 -225 -98 -399 -241 -542 -447 -135 -192 -219 -409 -287
-734 -6 -30 -23 -107 -36 -170 -33 -151 -35 -160 -41 -195 -3 -16 -7 -37 -10
-45 -3 -8 -8 -26 -10 -40 -3 -14 -19 -88 -35 -165 -17 -77 -32 -151 -35 -165
-3 -14 -9 -41 -14 -60 -5 -19 -12 -51 -15 -70 -3 -19 -10 -51 -15 -70 -5 -19
-11 -48 -14 -65 -3 -16 -31 -145 -62 -285 -30 -140 -57 -266 -60 -280 -2 -14
-8 -43 -13 -65 -16 -67 -41 -179 -45 -205 -3 -14 -12 -59 -21 -100 -9 -41 -18
-84 -21 -95 -3 -19 -40 -186 -50 -230 -2 -11 -7 -33 -10 -50 -2 -16 -14 -68
-25 -115 -11 -47 -22 -94 -24 -105 -7 -42 -67 -322 -80 -375 -8 -30 -16 -68
-19 -84 -5 -27 -19 -97 -31 -151 -2 -11 -13 -63 -25 -115 -12 -52 -24 -106
-26 -120 -3 -14 -19 -88 -35 -165 -32 -147 -44 -204 -104 -480 -20 -93 -39
-179 -41 -190 -2 -11 -8 -42 -13 -70 -60 -306 3 -583 168 -745 44 -43 116
-100 127 -100 4 0 15 -6 23 -13 49 -42 250 -102 378 -113 138 -12 1025 -10
1038 2 9 9 44 159 80 344 2 8 4 15 5 15 1 0 3 9 5 20 2 16 24 121 40 195 2 8
13 60 25 115 12 55 30 138 40 185 15 72 44 205 55 260 2 8 24 110 49 226 25
116 48 227 51 245 3 19 12 59 20 89 8 30 17 71 20 90 7 41 32 157 45 215 6 22
26 117 45 210 20 94 38 177 40 185 4 14 86 16 702 16 384 0 718 3 743 6 328
43 614 251 776 564 67 129 115 292 169 572 3 15 8 33 10 40 8 23 77 336 78
357 2 20 -5 20 -1083 20 l-1085 0 3 25 c4 28 9 55 16 85 11 48 25 112 30 135
12 58 50 233 82 375 26 115 40 182 49 225 2 14 10 50 17 80 l13 55 830 1 c730
1 932 5 954 19 4 2 26 6 49 10 100 15 267 84 382 158 36 23 67 44 70 47 3 3
19 16 35 29 174 133 333 362 394 567 16 55 128 568 148 674 2 14 11 53 19 88
7 35 14 66 14 70 0 5 -3187 11 -3193 6z"/>
</g>
</svg>
