<?xml version="1.0" standalone="no"?>
<!DOCTYPE svg PUBLIC "-//W3C//DTD SVG 20010904//EN"
 "http://www.w3.org/TR/2001/REC-SVG-20010904/DTD/svg10.dtd">
<svg version="1.0" xmlns="http://www.w3.org/2000/svg"
 width="700.000000pt" height="700.000000pt" viewBox="0 0 700.000000 700.000000"
 preserveAspectRatio="xMidYMid meet">
<metadata>
Created by potrace 1.11, written by Peter Selinger 2001-2013
</metadata>
<g transform="translate(0.000000,700.000000) scale(0.100000,-0.100000)"
fill="#000000" stroke="none">
<path d="M3249 6986 c-2 -2 -42 -7 -89 -11 -47 -3 -92 -8 -100 -10 -8 -2 -40
-7 -70 -10 -329 -38 -764 -181 -1119 -366 -184 -96 -486 -297 -596 -396 -11
-10 -56 -49 -100 -88 -113 -101 -185 -174 -329 -335 -157 -175 -356 -478 -484
-735 -147 -298 -279 -721 -317 -1025 -3 -25 -8 -56 -10 -70 -2 -14 -7 -59 -11
-100 -3 -41 -8 -91 -10 -110 -4 -50 -4 -417 1 -465 2 -22 6 -69 10 -105 9 -95
14 -133 36 -260 11 -63 22 -125 24 -137 2 -12 8 -37 14 -55 6 -18 12 -45 15
-59 8 -47 47 -181 88 -297 201 -576 547 -1085 1019 -1498 120 -105 468 -354
495 -354 4 0 15 -6 23 -14 31 -28 329 -174 466 -228 153 -60 411 -143 427
-137 2 0 16 -4 31 -10 58 -22 347 -73 497 -88 163 -15 669 -8 778 11 9 2 38 6
63 10 75 11 128 20 224 40 178 37 384 99 556 166 208 82 518 246 672 356 26
19 49 34 52 34 9 0 171 128 284 224 352 298 711 779 892 1196 23 52 50 114 60
136 61 137 171 521 195 678 3 22 7 43 9 46 1 3 6 32 10 65 4 33 9 71 11 85 1
14 6 59 9 100 4 41 8 89 10 105 5 38 5 384 1 450 -4 57 -15 163 -22 217 -3 21
-6 50 -8 65 -51 391 -226 893 -432 1239 -33 55 -61 104 -64 109 -19 37 -190
276 -250 348 -140 169 -253 285 -433 445 -181 160 -470 353 -707 472 -272 136
-646 265 -890 306 -14 2 -45 8 -70 14 -40 8 -99 16 -265 36 -57 7 -590 16
-596 10z m546 -829 c17 -2 48 -7 70 -10 22 -4 60 -9 85 -13 24 -3 47 -7 50 -9
3 -2 23 -6 45 -9 22 -4 96 -22 165 -41 546 -151 1015 -459 1373 -900 298 -368
512 -860 563 -1295 3 -25 7 -51 10 -58 7 -22 18 -219 18 -317 0 -94 -11 -281
-20 -350 -26 -203 -103 -496 -171 -655 -77 -178 -175 -365 -256 -485 -36 -53
-123 -171 -137 -185 -3 -3 -23 -27 -45 -55 -21 -27 -91 -102 -155 -166 -457
-458 -1053 -731 -1695 -776 -155 -11 -488 -4 -513 11 -4 2 -36 7 -72 10 -36 4
-114 18 -174 32 -646 145 -1195 501 -1587 1030 -115 154 -238 367 -298 514
-27 66 -35 86 -51 125 -43 104 -119 383 -135 500 -3 22 -8 58 -11 80 -3 22 -8
51 -10 65 -10 50 -12 487 -4 555 5 39 12 88 14 110 49 377 201 781 413 1100
212 318 515 613 828 806 350 216 751 352 1140 385 39 4 72 8 75 11 5 5 443 -4
485 -10z"/>
<path d="M2630 4938 c-231 -31 -402 -160 -486 -368 -30 -73 -34 -87 -70 -255
-14 -66 -28 -129 -30 -140 -3 -11 -7 -31 -10 -45 -3 -14 -11 -53 -19 -86 -8
-34 -16 -73 -19 -85 -2 -13 -7 -35 -10 -49 -3 -14 -21 -99 -41 -190 -19 -91
-38 -176 -41 -190 -3 -14 -7 -36 -10 -50 -6 -28 -34 -158 -39 -180 -3 -15 -43
-199 -50 -235 -3 -11 -7 -31 -10 -45 -3 -14 -7 -34 -9 -45 -2 -11 -20 -92 -39
-180 -20 -88 -40 -185 -46 -215 -6 -30 -14 -66 -16 -80 -28 -133 24 -271 125
-335 83 -52 178 -62 560 -56 l55 1 23 108 c12 59 25 116 27 127 5 27 120 562
149 695 l22 105 335 5 c204 4 346 10 365 17 120 42 230 149 277 270 14 35 87
341 87 363 0 3 -206 6 -457 5 -252 0 -463 1 -469 3 -8 2 -6 23 6 73 10 38 18
72 18 74 1 5 17 86 28 135 3 14 8 38 11 55 2 16 10 45 16 64 l12 35 385 1
c371 1 387 2 449 24 131 46 238 138 297 256 25 51 44 115 69 239 19 93 35 172
35 177 0 10 -1398 7 -1480 -3z"/>
<path d="M4475 4940 c-4 -6 -66 -287 -89 -404 -4 -19 -33 -152 -41 -186 -4
-20 -94 -437 -101 -470 -3 -14 -14 -67 -25 -119 -12 -51 -22 -101 -24 -110 -2
-9 -8 -36 -14 -61 -5 -25 -12 -56 -15 -70 -2 -14 -21 -101 -41 -195 -20 -93
-38 -177 -40 -186 -3 -17 -87 -404 -106 -489 -5 -25 -12 -56 -15 -70 -3 -14
-6 -60 -8 -103 -8 -165 58 -288 182 -344 50 -22 65 -23 297 -25 135 -2 245 -2
245 0 0 1 25 118 56 260 30 141 59 277 64 302 5 25 11 54 14 65 12 52 59 273
62 295 3 14 7 33 10 42 3 10 7 28 9 40 3 13 29 137 60 277 30 139 57 263 59
275 2 11 16 75 30 141 15 66 36 163 47 215 11 52 22 102 24 110 2 8 15 69 29
135 14 66 35 163 46 215 33 159 22 257 -39 340 -37 50 -59 68 -121 98 -55 26
-57 27 -302 29 -136 1 -250 -2 -253 -7z"/>
</g>
</svg>
