<?xml version="1.0" standalone="no"?>
<!DOCTYPE svg PUBLIC "-//W3C//DTD SVG 20010904//EN"
 "http://www.w3.org/TR/2001/REC-SVG-20010904/DTD/svg10.dtd">
<svg version="1.0" xmlns="http://www.w3.org/2000/svg"
 width="1808.000000pt" height="1808.000000pt" viewBox="0 0 1808.000000 1808.000000"
 preserveAspectRatio="xMidYMid meet">
<metadata>
Created by potrace 1.11, written by Peter Selinger 2001-2013
</metadata>
<g transform="translate(0.000000,1808.000000) scale(0.100000,-0.100000)"
fill="#000000" stroke="none">
<path d="M8690 18074 c-242 -13 -440 -28 -604 -45 -2475 -259 -4729 -1531
-6250 -3529 -995 -1307 -1617 -2877 -1785 -4510 -38 -367 -45 -520 -45 -950 0
-430 7 -583 45 -949 249 -2420 1479 -4644 3406 -6160 1342 -1055 2945 -1706
4633 -1880 367 -38 520 -45 950 -45 728 0 1324 64 1992 215 2074 468 3914
1654 5212 3359 995 1307 1617 2877 1785 4510 38 367 45 520 45 950 0 430 -7
583 -45 949 -249 2420 -1479 4644 -3406 6160 -1326 1043 -2914 1693 -4582
1876 -304 33 -538 46 -906 49 -209 2 -409 2 -445 0z m595 -2124 c541 -21 989
-86 1495 -216 2128 -546 3880 -2093 4700 -4149 485 -1216 611 -2600 354 -3894
-199 -1007 -623 -1962 -1237 -2787 -815 -1096 -1956 -1939 -3242 -2394 -1047
-371 -2194 -483 -3305 -324 -1127 162 -2215 612 -3136 1297 -1267 943 -2190
2317 -2572 3832 -130 514 -191 944 -212 1479 -44 1174 219 2350 764 3411 955
1860 2735 3206 4781 3614 384 76 813 125 1185 134 58 2 121 4 140 5 19 1 148
-3 285 -8z"/>
<path d="M13170 12053 c-545 -54 -972 -225 -1375 -550 -130 -105 -340 -321
-436 -448 -244 -326 -395 -682 -454 -1070 -20 -131 -19 -367 0 -481 94 -538
506 -900 1234 -1084 451 -113 786 -239 899 -336 60 -51 76 -102 70 -221 -8
-168 -77 -329 -188 -443 -163 -166 -398 -245 -770 -257 -241 -8 -412 15 -604
79 -248 83 -487 248 -661 457 l-59 72 -120 -3 -120 -3 -58 -295 c-83 -425 -91
-492 -85 -640 11 -250 96 -448 266 -620 205 -207 501 -327 928 -376 179 -21
643 -15 803 11 445 70 802 213 1121 452 119 88 316 277 406 388 246 305 414
671 504 1104 40 188 51 479 25 627 -74 427 -328 740 -768 949 -139 66 -267
109 -500 171 -370 97 -612 180 -748 256 -171 95 -217 195 -174 378 72 307 333
486 783 540 123 14 430 14 551 0 122 -15 294 -59 391 -99 180 -75 360 -222
458 -373 l43 -68 127 0 126 0 75 368 c70 347 74 374 74 497 -1 272 -91 479
-288 662 -263 244 -689 366 -1261 361 -99 0 -196 -3 -215 -5z"/>
<path d="M3646 11908 c-3 -29 -12 -154 -21 -278 -99 -1490 -26 -2805 225
-4061 110 -548 293 -1210 383 -1384 56 -108 156 -209 257 -259 107 -52 195
-66 424 -66 l192 0 115 157 c524 722 1064 1668 1474 2583 43 96 82 179 87 185
4 5 8 -16 8 -46 0 -131 51 -670 91 -959 67 -485 171 -977 290 -1370 80 -266
181 -406 349 -488 108 -53 167 -62 406 -62 l190 0 49 68 c604 836 1139 1727
1619 2697 533 1076 947 2000 1075 2398 52 165 71 266 71 386 0 163 -40 265
-146 380 -36 38 -89 84 -118 100 -99 57 -133 61 -546 61 l-376 0 -31 -97
c-120 -374 -176 -544 -216 -653 -102 -280 -168 -455 -227 -600 -19 -48 -45
-111 -92 -230 -16 -41 -33 -84 -38 -95 -5 -11 -23 -54 -41 -95 -17 -41 -37
-88 -45 -105 -7 -16 -60 -136 -117 -265 -126 -283 -152 -338 -229 -500 -158
-330 -477 -962 -498 -983 -9 -10 -13 8 -29 118 -6 39 -18 115 -26 170 -8 55
-22 156 -30 225 -8 69 -17 143 -20 165 -17 128 -45 415 -60 615 -28 387 -35
565 -35 956 0 458 -19 602 -100 769 -96 198 -251 321 -475 377 -83 21 -113 22
-399 23 l-310 0 -98 -260 c-292 -771 -609 -1516 -938 -2206 -175 -366 -478
-954 -487 -945 -16 16 -91 671 -117 1031 -28 380 -39 1050 -27 1735 2 174 0
230 -14 295 -56 268 -208 455 -435 537 -64 22 -73 23 -511 26 l-447 3 -6 -53z"/>
</g>
</svg>
