<svg width="1808" height="1808" viewBox="0 0 1808 1808" fill="none" xmlns="http://www.w3.org/2000/svg">
<path fill-rule="evenodd" clip-rule="evenodd" d="M904 1808C404.735 1808 0 1403.27 0 904C0 404.73 404.735 0 904 0C1403.27 0 1808 404.735 1808 904C1808 1403.27 1403.27 1808 904 1808ZM904.51 212.51C522.329 212.51 212.51 522.329 212.51 904.51C212.51 1286.69 522.329 1596.51 904.51 1596.51C1286.69 1596.51 1596.51 1286.69 1596.51 904.51C1596.51 522.33 1286.69 212.51 904.51 212.51Z" fill="#1072B1"/>
<path d="M294.508 1007.46L340.152 809.652H425.23L379.586 1007.46H294.508ZM391.305 1007.46L427.457 850.785H556.48C575.504 850.121 588.98 853.812 596.91 861.859C604.84 869.867 607.125 881.215 603.766 895.902L577.984 1007.46H492.73L517.867 898.539C519.469 891.703 517.574 888.285 512.184 888.285C509.488 888.285 507.301 888.988 505.621 890.395C503.941 891.801 502.633 894.516 501.695 898.539L476.559 1007.46H391.305ZM702.262 965.453L718.199 896.312C719.762 889.672 717.848 886.352 712.457 886.352C709.684 886.352 707.477 887.016 705.836 888.344C704.195 889.633 702.906 892.289 701.969 896.312L686.031 965.453C684.508 972.094 686.461 975.414 691.891 975.414C697.281 975.414 700.738 972.094 702.262 965.453ZM739.176 809.652H824.488L787.105 971.605C785.582 978.129 783.355 983.656 780.426 988.188C777.496 992.68 773.453 996.371 768.297 999.262C763.141 1002.15 756.871 1004.22 749.488 1005.47C742.105 1006.72 733.395 1007.35 723.355 1007.35H645.602C635.562 1007.35 627.145 1006.72 620.348 1005.47C613.551 1004.18 608.199 1002.07 604.293 999.145C600.426 996.176 598.062 992.445 597.203 987.953C596.344 983.422 596.656 977.973 598.141 971.605L617.828 886.293C619.234 880.082 621.402 874.73 624.332 870.238C627.301 865.707 631.402 861.977 636.637 859.047C641.91 856.078 648.238 853.969 655.621 852.719C663.004 851.43 671.715 850.785 681.754 850.785H729.684L739.176 809.652ZM929.371 850.668H1014.68L977.828 1010.34C975.602 1019.91 973.004 1027.02 970.035 1031.66C967.066 1036.31 962.945 1040.16 957.672 1043.21C952.438 1046.25 946.148 1048.42 938.805 1049.71C931.5 1051 922.828 1051.64 912.789 1051.64H789.156L796.598 1019.42H874.117C880.875 1019.42 885.387 1018.93 887.652 1017.95C889.957 1016.98 891.871 1013.73 893.395 1008.23C883.355 1008.34 874.41 1008.4 866.559 1008.4H848.57C829.195 1008.4 815.562 1004.36 807.672 996.273C799.781 988.188 797.535 976.781 800.934 962.055L826.656 850.668H912.672L887.535 959.418C886.598 963.48 886.637 966.215 887.652 967.621C888.707 969.027 890.758 969.73 893.805 969.73C896.5 969.73 898.668 969.027 900.309 967.621C901.988 966.215 903.297 963.48 904.234 959.418L929.371 850.668ZM1193.16 923.5L1183.84 963.871C1182.12 971.371 1179.7 977.836 1176.58 983.266C1173.49 988.656 1169.39 993.168 1164.27 996.801C1159.16 1000.39 1153.04 1003.05 1145.93 1004.77C1138.86 1006.49 1130.72 1007.35 1121.5 1007.35H1040.41C1022.95 1007.35 1011.03 1003.79 1004.66 996.684C998.297 989.535 996.812 978.598 1000.21 963.871L1025.35 854.887C1027.34 846.41 1029.88 839.184 1032.96 833.207C1036.05 827.191 1040.05 822.211 1044.98 818.266C1049.9 814.32 1055.82 811.449 1062.73 809.652C1069.68 807.816 1077.67 806.898 1086.7 806.898H1167.79C1177.36 806.898 1185.43 807.816 1191.99 809.652C1198.55 811.449 1203.3 814.281 1206.23 818.148C1212.05 825.414 1212.96 837.66 1208.98 854.887L1202.77 882.016H1117.93L1121.5 866.43C1122.67 861.391 1122.83 858.012 1121.97 856.293C1121.11 854.574 1119.57 853.715 1117.34 853.715C1115.19 853.715 1113.3 854.613 1111.66 856.41C1110.05 858.168 1108.69 861.508 1107.55 866.43L1088.8 947.523C1087.67 952.445 1087.5 955.805 1088.28 957.602C1089.1 959.359 1090.58 960.238 1092.73 960.238C1097.46 960.238 1100.8 956 1102.75 947.523L1108.32 923.5H1193.16ZM1300.15 961.527L1305.02 940.434L1297.98 942.602C1293.1 944.164 1289.53 946.02 1287.26 948.168C1285 950.277 1283.34 953.617 1282.28 958.188L1281.52 961.527C1279.88 968.715 1282.09 972.309 1288.14 972.309C1291.23 972.309 1293.77 971.566 1295.76 970.082C1297.75 968.559 1299.21 965.707 1300.15 961.527ZM1312.57 905.277L1315.39 893.266C1316.44 888.773 1316.38 885.863 1315.21 884.535C1314.08 883.168 1311.97 882.484 1308.88 882.484C1305.84 882.484 1303.41 883.227 1301.62 884.711C1299.86 886.195 1298.49 889.047 1297.52 893.266L1296.05 899.77H1213.14L1216.01 887.289C1217.54 880.688 1219.78 875.082 1222.75 870.473C1225.72 865.824 1229.82 862.016 1235.05 859.047C1240.29 856.039 1246.6 853.91 1253.98 852.66C1261.4 851.371 1270.13 850.727 1280.17 850.727H1354.12C1364.16 850.727 1372.57 851.371 1379.37 852.66C1386.21 853.91 1391.54 856.078 1395.37 859.164C1399.23 862.211 1401.58 866.059 1402.4 870.707C1403.22 875.355 1402.89 880.883 1401.4 887.289L1373.63 1007.46H1244.72C1225.78 1007.78 1212.36 1004.03 1204.47 996.215C1196.58 988.363 1194.43 974.164 1198.02 953.617C1207.95 922.328 1231.11 906.215 1267.52 905.277H1312.57ZM1385.29 1007.46L1421.32 851.254H1504.29L1502.71 858.227C1509.98 851.898 1524.78 849.555 1547.12 851.195L1536.46 897.426C1510.88 897.582 1495.37 906.469 1489.94 924.086L1470.66 1007.46H1385.29Z" fill="#1072B1"/>
</svg>
