<?xml version="1.0" standalone="no"?>
<!DOCTYPE svg PUBLIC "-//W3C//DTD SVG 20010904//EN"
 "http://www.w3.org/TR/2001/REC-SVG-20010904/DTD/svg10.dtd">
<svg version="1.0" xmlns="http://www.w3.org/2000/svg"
 width="700.000000pt" height="700.000000pt" viewBox="0 0 700.000000 700.000000"
 preserveAspectRatio="xMidYMid meet">
<metadata>
Created by potrace 1.14, written by Peter Selinger 2001-2017
</metadata>
<g transform="translate(0.000000,700.000000) scale(0.100000,-0.100000)"
fill="#000000" stroke="none">
<path d="M3278 6996 c-1 -2 -42 -6 -89 -10 -47 -4 -95 -8 -105 -10 -10 -2 -45
-7 -78 -11 -101 -12 -215 -35 -380 -76 -296 -75 -599 -199 -881 -362 -102 -59
-288 -180 -305 -197 -3 -3 -43 -34 -90 -70 -90 -69 -111 -86 -198 -165 -352
-320 -662 -745 -837 -1145 -25 -58 -50 -114 -55 -125 -45 -93 -150 -427 -176
-560 -2 -11 -10 -54 -19 -95 -29 -147 -35 -193 -52 -370 -15 -163 -8 -592 12
-711 2 -13 6 -46 9 -74 37 -328 168 -746 339 -1085 61 -122 169 -312 187 -330
3 -3 31 -43 62 -90 170 -255 431 -534 708 -755 92 -74 370 -265 386 -265 4 0
15 -6 23 -14 9 -7 81 -47 161 -88 354 -181 736 -303 1109 -354 25 -3 57 -8 71
-10 163 -25 682 -25 842 1 13 2 46 7 73 10 71 10 87 13 115 18 14 3 43 8 65
12 325 59 741 212 1039 384 49 28 91 51 93 51 10 0 268 180 353 247 151 118
324 281 450 422 36 41 70 79 76 85 65 68 263 353 352 508 46 79 172 331 172
342 0 3 11 29 24 58 57 127 151 421 182 573 17 81 54 301 59 350 4 33 9 71 11
85 9 47 11 525 3 605 -15 165 -21 220 -24 225 -2 3 -6 30 -10 60 -3 30 -10 71
-15 90 -5 19 -12 51 -15 70 -13 75 -67 275 -106 392 -348 1037 -1165 1855
-2204 2206 -167 56 -419 119 -555 137 -19 3 -46 7 -60 10 -13 2 -54 7 -90 11
-36 3 -76 8 -90 11 -27 5 -536 14 -542 9z m487 -831 c44 -4 82 -8 85 -10 3 -2
30 -6 60 -10 108 -13 291 -56 425 -100 470 -153 940 -474 1230 -840 22 -27 43
-52 46 -55 13 -12 118 -161 157 -223 183 -291 316 -636 371 -957 6 -36 13 -78
16 -95 14 -79 20 -197 20 -375 0 -251 -13 -378 -59 -595 -28 -127 -95 -331
-152 -464 -283 -651 -812 -1168 -1464 -1428 -190 -76 -435 -145 -565 -159 -33
-3 -63 -8 -67 -10 -43 -26 -572 -25 -743 1 -16 3 -43 7 -60 9 -125 16 -393 91
-550 153 -276 109 -586 300 -791 488 -374 342 -623 724 -773 1185 -17 52 -33
104 -35 115 -2 11 -11 47 -19 80 -17 65 -36 160 -43 215 -2 19 -6 46 -9 60
-29 155 -24 571 9 755 3 17 8 47 12 69 16 103 51 240 99 383 233 698 766 1283
1451 1591 245 110 574 196 834 217 41 4 76 8 77 9 5 5 362 -2 438 -9z"/>
<path d="M2595 4935 c-187 -34 -330 -131 -415 -280 -42 -74 -74 -168 -104
-310 -13 -66 -66 -309 -116 -540 -83 -383 -123 -572 -134 -629 -2 -11 -10 -43
-16 -71 -6 -27 -14 -61 -16 -75 -3 -14 -7 -33 -10 -42 -3 -10 -7 -28 -9 -40
-4 -20 -66 -309 -81 -378 -52 -233 8 -378 181 -439 65 -23 83 -25 302 -27 162
-1 235 2 242 10 4 6 12 29 16 51 5 22 9 45 11 50 1 6 4 21 7 35 3 14 25 120
50 235 44 202 51 232 62 293 11 54 58 268 69 317 l12 50 340 5 339 5 58 27
c109 51 197 145 240 255 14 35 87 341 87 363 0 3 -207 6 -461 6 -253 -1 -464
1 -468 4 -5 3 3 52 16 110 13 58 25 114 27 125 3 17 15 67 41 180 4 20 11 20
362 20 246 -1 379 3 426 12 145 26 284 132 351 267 26 52 45 115 71 236 19 91
35 171 35 178 0 18 -1414 16 -1515 -3z"/>
<path d="M4476 4938 c-10 -34 -30 -121 -71 -318 -25 -118 -48 -226 -52 -240
-3 -14 -8 -34 -10 -44 -4 -21 -33 -159 -118 -551 -66 -302 -115 -531 -121
-560 -2 -11 -31 -146 -64 -300 -73 -336 -66 -300 -75 -355 -35 -212 26 -371
171 -440 47 -22 59 -23 296 -25 216 -1 249 1 252 15 7 22 64 289 71 329 3 19
8 37 10 41 2 4 7 22 10 41 3 19 20 97 37 174 16 77 32 151 35 165 4 24 21 103
77 361 14 63 37 169 51 235 41 190 72 337 79 364 3 14 8 36 10 50 2 14 9 45
15 70 5 25 12 56 15 70 7 39 66 312 73 340 8 33 8 32 28 130 37 176 17 275
-70 365 -84 87 -119 95 -406 95 -183 0 -241 -3 -243 -12z"/>
</g>
</svg>
