<?xml version="1.0" standalone="no"?>
<!DOCTYPE svg PUBLIC "-//W3C//DTD SVG 20010904//EN"
 "http://www.w3.org/TR/2001/REC-SVG-20010904/DTD/svg10.dtd">
<svg version="1.0" xmlns="http://www.w3.org/2000/svg"
 width="1808.000000pt" height="1808.000000pt" viewBox="0 0 1808.000000 1808.000000"
 preserveAspectRatio="xMidYMid meet">
<metadata>
Created by potrace 1.14, written by Peter Selinger 2001-2017
</metadata>
<g transform="translate(0.000000,1808.000000) scale(0.100000,-0.100000)"
fill="#000000" stroke="none">
<path d="M8668 18075 c-2 -1 -61 -6 -133 -9 -71 -4 -152 -9 -180 -11 -128 -10
-199 -17 -215 -20 -9 -2 -50 -6 -92 -9 -41 -4 -85 -8 -96 -11 -11 -2 -49 -6
-84 -10 -35 -3 -70 -8 -78 -10 -8 -2 -35 -7 -60 -10 -25 -3 -56 -8 -70 -10
-180 -28 -244 -40 -354 -61 -162 -32 -138 -27 -296 -63 -74 -17 -211 -51 -305
-77 -93 -25 -183 -49 -200 -54 -218 -58 -788 -262 -1020 -365 -16 -7 -57 -25
-90 -40 -33 -15 -76 -34 -95 -42 -91 -41 -464 -226 -535 -266 -44 -24 -111
-61 -150 -82 -337 -185 -808 -499 -1130 -753 -5 -4 -30 -23 -55 -42 -25 -19
-47 -37 -50 -40 -3 -3 -41 -35 -85 -70 -44 -36 -85 -69 -91 -75 -6 -5 -35 -31
-65 -57 -30 -25 -65 -56 -79 -68 -215 -186 -611 -583 -817 -819 -21 -24 -46
-53 -56 -65 -11 -12 -35 -41 -55 -65 -21 -25 -51 -61 -68 -80 -17 -20 -80 -99
-140 -176 -289 -370 -520 -714 -757 -1130 -80 -139 -306 -581 -361 -705 -184
-416 -308 -747 -427 -1145 -141 -470 -256 -1019 -313 -1495 -17 -141 -24 -211
-31 -310 -4 -47 -8 -95 -10 -108 -26 -164 -26 -1070 0 -1362 2 -19 6 -71 9
-115 4 -44 9 -91 11 -105 3 -22 13 -114 20 -195 2 -16 6 -50 9 -75 4 -25 13
-92 22 -150 15 -110 24 -162 49 -295 8 -44 17 -93 19 -109 35 -204 209 -894
256 -1011 5 -11 32 -90 60 -175 86 -256 201 -550 296 -758 19 -41 34 -76 34
-79 0 -23 328 -660 359 -697 8 -9 11 -16 8 -16 -3 0 31 -60 75 -132 45 -73 88
-145 97 -161 27 -47 205 -322 211 -327 3 -3 37 -50 74 -105 97 -140 411 -554
446 -585 3 -3 43 -50 90 -105 46 -55 89 -105 95 -111 5 -6 44 -49 85 -95 141
-157 554 -565 710 -699 14 -12 39 -34 55 -48 28 -25 191 -162 225 -189 8 -6
42 -33 75 -60 210 -172 528 -397 810 -574 191 -119 168 -105 321 -194 620
-356 1264 -630 1991 -845 160 -47 664 -168 768 -185 11 -1 85 -14 165 -28 80
-14 162 -28 183 -31 20 -3 52 -8 70 -11 136 -20 401 -51 527 -61 41 -3 89 -7
105 -9 231 -27 1055 -27 1365 0 25 2 79 7 120 10 41 3 89 8 105 10 17 2 57 7
90 10 124 12 398 48 460 61 11 3 36 7 55 10 69 10 356 65 390 74 19 5 94 22
165 38 107 24 262 64 470 121 247 68 810 271 1027 370 48 21 99 43 108 46 25
7 520 251 615 303 176 96 219 121 360 205 216 130 523 335 725 485 96 72 180
134 185 139 22 18 74 59 110 88 22 17 58 46 80 65 23 19 61 51 86 71 24 20 64
54 88 75 24 22 53 47 65 57 203 176 631 605 796 797 12 14 43 50 69 80 27 30
70 82 97 115 26 33 51 62 54 65 36 34 295 375 419 553 319 457 632 1011 836
1477 20 47 47 108 60 135 90 197 266 686 340 940 9 33 23 78 31 100 12 37 34
115 40 141 1 6 18 73 38 150 29 113 66 276 92 399 8 42 53 282 58 315 20 125
46 303 51 350 3 30 8 65 10 76 3 12 7 50 10 85 3 35 8 80 11 99 3 19 7 69 10
110 3 41 7 91 9 110 27 263 27 1045 0 1365 -19 216 -33 365 -40 405 -2 14 -7
49 -10 79 -4 30 -8 61 -10 70 -2 9 -6 44 -10 76 -4 33 -9 69 -11 80 -7 36 -13
69 -19 115 -10 69 -81 423 -105 525 -12 50 -23 97 -25 105 -2 8 -17 69 -34
135 -18 66 -33 127 -35 135 -53 213 -223 711 -339 996 -129 315 -402 879 -495
1024 -9 14 -17 27 -17 30 0 3 -27 50 -60 105 -33 55 -64 108 -70 117 -22 37
-92 148 -164 258 -42 63 -80 123 -86 132 -39 65 -218 309 -403 548 -86 110
-287 345 -432 504 -138 151 -531 536 -670 656 -14 12 -38 34 -55 48 -16 15
-70 61 -120 102 -49 41 -92 77 -95 80 -3 3 -23 19 -45 36 -22 17 -92 71 -155
120 -209 163 -557 404 -750 520 -36 21 -67 41 -70 44 -3 3 -16 11 -30 19 -14
8 -77 45 -140 81 -175 101 -219 125 -425 230 -501 257 -989 449 -1590 629 -80
23 -417 111 -455 118 -14 2 -42 8 -63 14 -87 23 -502 101 -610 114 -23 3 -49
7 -57 9 -8 3 -42 8 -75 12 -33 3 -71 8 -85 10 -60 7 -128 15 -160 19 -115 13
-140 15 -190 19 -59 6 -161 14 -275 22 -74 6 -901 14 -907 9z m747 -2129 c65
-4 137 -9 160 -11 47 -4 175 -16 225 -21 41 -4 124 -13 160 -19 14 -2 45 -6
70 -10 25 -4 56 -8 70 -10 39 -5 113 -17 135 -21 11 -2 32 -6 47 -9 78 -14
231 -46 289 -59 36 -9 74 -17 85 -19 10 -1 24 -5 29 -8 6 -4 28 -10 50 -13 57
-11 267 -70 425 -121 759 -245 1397 -577 2065 -1075 55 -41 102 -77 105 -80 3
-3 50 -43 105 -87 55 -45 114 -93 130 -108 17 -15 59 -52 95 -83 88 -77 450
-438 536 -536 38 -43 74 -83 79 -90 94 -104 292 -357 407 -517 97 -134 248
-366 248 -379 0 -6 4 -10 8 -10 5 0 16 -15 25 -32 9 -18 25 -46 35 -63 10 -16
33 -57 52 -90 19 -33 43 -73 52 -90 31 -53 232 -457 271 -542 106 -237 240
-607 317 -871 42 -147 105 -395 115 -452 3 -19 10 -51 15 -70 11 -43 14 -58
45 -240 13 -80 27 -167 30 -195 4 -27 8 -57 10 -65 2 -8 7 -43 10 -78 4 -35 8
-71 10 -80 1 -9 6 -60 10 -112 4 -52 9 -102 10 -110 2 -9 7 -90 11 -180 15
-321 7 -733 -21 -1000 -3 -30 -7 -78 -10 -105 -2 -28 -6 -64 -9 -80 -2 -17 -8
-55 -11 -85 -3 -30 -8 -62 -10 -70 -2 -8 -7 -37 -10 -65 -6 -55 -25 -165 -56
-320 -198 -995 -628 -1954 -1243 -2775 -56 -74 -109 -144 -118 -155 -9 -11
-42 -51 -73 -90 -176 -217 -540 -597 -744 -775 -41 -36 -79 -69 -85 -75 -32
-29 -192 -160 -271 -221 -483 -379 -1064 -715 -1645 -951 -202 -83 -505 -188
-670 -234 -25 -7 -49 -14 -55 -15 -28 -9 -364 -94 -385 -98 -198 -40 -334 -65
-375 -70 -27 -4 -57 -9 -65 -11 -8 -2 -37 -6 -65 -10 -27 -3 -61 -7 -75 -10
-14 -2 -45 -7 -70 -9 -25 -3 -63 -7 -85 -10 -347 -43 -968 -53 -1290 -21 -22
2 -71 7 -110 10 -79 7 -124 11 -240 26 -150 19 -153 20 -243 35 -12 2 -50 9
-85 14 -139 24 -321 63 -472 101 -88 23 -167 42 -175 44 -204 51 -645 209
-935 335 -113 49 -405 192 -487 238 -21 12 -68 38 -105 58 -90 49 -340 201
-379 231 -17 13 -36 23 -42 23 -7 0 -12 3 -12 8 0 4 -9 12 -19 17 -53 27 -336
234 -486 354 -357 288 -777 702 -1020 1006 -22 28 -45 55 -51 60 -5 6 -23 28
-39 50 -16 22 -32 42 -35 45 -34 29 -292 399 -404 579 -154 246 -368 647 -450
841 -11 25 -30 70 -43 100 -129 290 -318 861 -368 1110 -2 8 -8 33 -13 55 -10
36 -52 241 -66 320 -3 17 -8 39 -10 50 -2 11 -7 45 -11 75 -4 30 -9 64 -11 75
-5 22 -21 143 -30 215 -3 25 -7 55 -9 66 -2 12 -6 59 -10 105 -4 46 -8 102
-10 124 -23 252 -23 808 0 1060 2 28 7 77 10 110 14 153 21 217 30 265 2 11 6
43 9 72 4 29 8 64 11 78 2 14 11 68 20 120 9 52 19 109 22 125 10 59 54 262
79 360 14 55 27 108 29 118 9 44 81 282 117 387 22 63 41 122 43 130 15 57
135 359 210 525 61 138 212 440 280 560 133 239 368 598 514 785 40 52 82 106
104 134 22 30 164 202 182 222 5 6 44 49 85 95 83 94 424 437 511 514 163 145
229 201 374 314 72 56 135 105 140 109 6 4 53 38 105 75 52 38 103 75 113 83
10 8 29 20 43 26 13 6 24 15 24 20 0 4 5 8 10 8 6 0 32 15 58 33 26 18 103 67
172 109 443 269 910 488 1370 643 207 69 323 105 341 105 9 0 19 3 23 7 3 4
12 8 19 9 7 1 59 14 117 29 58 15 113 29 123 31 10 2 26 5 35 8 9 3 32 8 51
11 19 3 37 8 41 10 3 2 17 6 31 9 93 17 207 39 224 42 45 9 274 43 325 49 30
3 66 7 80 10 52 9 98 14 180 20 47 3 103 8 125 10 22 2 108 7 190 11 83 3 151
7 152 8 5 4 446 -2 548 -8z"/>
<path d="M11007 12364 c-1 -1 -29 -4 -62 -7 -318 -31 -613 -189 -814 -437 -20
-25 -38 -47 -41 -50 -14 -12 -80 -120 -105 -170 -49 -98 -72 -172 -114 -370
-23 -107 -46 -215 -52 -240 -6 -25 -13 -56 -15 -70 -3 -14 -11 -56 -20 -95 -8
-38 -16 -79 -18 -90 -3 -11 -9 -40 -15 -65 -6 -25 -11 -52 -11 -61 0 -15 102
-16 1213 -16 1178 -1 1212 -1 1211 -19 0 -11 -13 -75 -27 -144 -36 -171 -114
-529 -122 -562 l-7 -28 -697 -1 c-669 -1 -736 -2 -791 -12 -250 -46 -481 -194
-636 -407 -125 -171 -165 -279 -266 -730 -45 -195 -83 -367 -85 -382 l-5 -28
223 0 c123 0 614 0 1091 0 819 0 866 -1 862 -18 -6 -24 -93 -427 -104 -482 -5
-25 -12 -54 -14 -65 -3 -11 -17 -74 -31 -140 -14 -66 -30 -136 -35 -155 -5
-19 -12 -51 -15 -70 -3 -19 -10 -39 -14 -43 -5 -4 -395 -9 -867 -11 -472 -1
-870 -5 -884 -9 -14 -4 -38 -10 -55 -12 -208 -37 -436 -159 -601 -320 -187
-185 -295 -383 -340 -625 -3 -14 -18 -86 -34 -160 -88 -408 -110 -512 -110
-525 0 -14 190 -15 1703 -12 936 2 1720 7 1742 11 267 49 381 83 530 158 192
96 369 251 485 426 45 68 118 208 163 312 34 80 105 340 131 480 2 14 7 36 10
50 3 14 8 36 10 50 5 25 64 302 71 330 2 8 13 58 24 110 11 52 41 190 66 305
25 116 53 244 61 285 20 99 20 97 49 230 14 63 44 201 66 305 22 105 46 217
54 250 13 55 97 448 109 506 2 13 21 101 41 194 20 94 55 253 77 355 22 102
41 192 43 200 20 88 35 159 39 180 10 53 86 407 95 440 6 19 12 49 15 65 3 17
17 85 31 150 15 66 28 129 30 140 3 11 8 34 12 50 3 17 7 37 9 45 2 16 12 77
20 120 5 33 5 216 0 255 -53 359 -310 582 -716 621 -58 5 -2556 13 -2563 8z"/>
<path d="M6297 12344 c-1 -1 -51 -4 -112 -8 -60 -3 -121 -8 -135 -11 -14 -3
-50 -8 -80 -11 -30 -3 -58 -8 -61 -10 -3 -2 -19 -6 -36 -8 -65 -12 -204 -57
-293 -95 -225 -98 -399 -241 -542 -447 -135 -192 -219 -409 -287 -734 -6 -30
-23 -107 -36 -170 -33 -151 -35 -160 -41 -195 -3 -16 -7 -37 -10 -45 -3 -8 -8
-26 -10 -40 -3 -14 -19 -88 -35 -165 -17 -77 -32 -149 -34 -160 -3 -11 -7 -31
-10 -45 -3 -14 -7 -34 -9 -45 -2 -11 -11 -50 -20 -88 -9 -37 -18 -79 -21 -95
-2 -15 -30 -142 -61 -282 -30 -140 -57 -266 -60 -280 -2 -14 -8 -43 -13 -65
-16 -67 -41 -179 -45 -205 -3 -14 -12 -59 -21 -100 -9 -41 -18 -84 -21 -95 -3
-19 -40 -186 -50 -230 -2 -11 -7 -33 -10 -50 -2 -16 -14 -68 -25 -115 -11 -47
-22 -94 -24 -105 -7 -42 -67 -322 -80 -375 -8 -30 -16 -68 -19 -84 -5 -27 -19
-97 -31 -151 -2 -11 -13 -63 -25 -115 -12 -52 -23 -104 -26 -115 -2 -11 -6
-33 -10 -50 -3 -16 -23 -111 -44 -210 -22 -99 -42 -191 -44 -205 -3 -14 -21
-97 -41 -185 -19 -88 -38 -173 -41 -190 -3 -16 -9 -48 -14 -70 -62 -288 5
-584 169 -745 44 -43 116 -100 127 -100 4 0 15 -6 23 -13 49 -42 250 -102 378
-113 138 -12 1025 -10 1038 2 9 9 44 159 80 344 2 8 4 15 5 15 1 0 3 9 5 20 2
16 24 121 40 195 2 8 13 60 25 115 12 55 30 138 40 185 15 72 44 205 55 260 2
8 24 110 49 226 25 116 48 227 51 245 3 19 12 59 20 89 8 30 17 71 20 90 7 41
32 157 45 215 6 22 26 117 45 210 20 94 38 177 40 185 4 14 86 16 702 16 384
0 718 3 743 6 328 43 614 251 776 564 67 129 115 292 169 572 3 15 8 33 10 40
8 23 77 336 78 357 2 20 -5 20 -1083 20 l-1085 0 3 25 c4 28 9 55 16 85 11 48
25 112 30 135 12 58 50 233 82 375 26 115 40 182 49 225 2 14 10 50 17 80 l13
55 830 1 c730 1 932 5 954 19 4 2 26 6 49 10 100 15 268 84 382 158 110 71
178 131 294 261 71 80 170 263 205 382 16 55 128 568 148 674 2 14 11 53 19
88 7 35 14 66 14 70 0 5 -3187 11 -3193 6z"/>
</g>
</svg>
