<?xml version="1.0" standalone="no"?>
<!DOCTYPE svg PUBLIC "-//W3C//DTD SVG 20010904//EN"
 "http://www.w3.org/TR/2001/REC-SVG-20010904/DTD/svg10.dtd">
<svg version="1.0" xmlns="http://www.w3.org/2000/svg"
 width="1808.000000pt" height="1808.000000pt" viewBox="0 0 1808.000000 1808.000000"
 preserveAspectRatio="xMidYMid meet">
<metadata>
Created by potrace 1.11, written by Peter Selinger 2001-2013
</metadata>
<g transform="translate(0.000000,1808.000000) scale(0.100000,-0.100000)"
fill="#000000" stroke="none">
<path d="M8668 18075 c-2 -1 -61 -6 -133 -9 -71 -4 -152 -9 -180 -11 -128 -10
-199 -17 -215 -20 -9 -2 -50 -6 -92 -9 -41 -4 -85 -9 -97 -11 -13 -2 -52 -7
-89 -11 -37 -3 -69 -7 -72 -9 -4 -3 -51 -10 -140 -21 -68 -8 -326 -55 -489
-89 -116 -24 -320 -74 -456 -111 -93 -25 -183 -49 -200 -54 -167 -44 -554
-178 -805 -277 -173 -69 -201 -81 -395 -168 -105 -47 -457 -222 -540 -268 -44
-24 -111 -61 -150 -82 -337 -185 -808 -499 -1130 -753 -5 -4 -30 -23 -55 -42
-25 -19 -47 -37 -50 -40 -3 -3 -41 -35 -85 -70 -44 -36 -85 -69 -91 -75 -6 -5
-35 -31 -65 -57 -30 -25 -65 -56 -79 -68 -215 -186 -611 -583 -817 -819 -21
-24 -46 -53 -56 -65 -11 -12 -35 -41 -55 -65 -21 -25 -51 -61 -68 -80 -54 -63
-246 -311 -340 -441 -307 -424 -527 -786 -763 -1255 -131 -261 -145 -290 -243
-520 -54 -126 -82 -195 -165 -415 -220 -581 -409 -1365 -487 -2020 -17 -141
-24 -211 -31 -310 -4 -47 -8 -95 -10 -108 -26 -164 -26 -1065 0 -1362 1 -19 6
-71 9 -115 4 -44 9 -91 11 -105 3 -23 13 -117 20 -195 2 -16 6 -50 9 -75 4
-25 13 -92 22 -150 15 -110 24 -162 49 -295 8 -44 17 -93 19 -109 35 -204 209
-894 256 -1011 5 -11 32 -90 60 -175 86 -256 201 -550 296 -758 19 -41 34 -76
34 -79 0 -23 328 -660 359 -697 8 -9 11 -16 8 -16 -3 0 31 -60 75 -132 45 -73
88 -145 97 -161 27 -47 205 -322 211 -327 3 -3 37 -50 74 -105 152 -221 469
-624 631 -801 5 -6 44 -49 85 -95 142 -159 555 -565 710 -699 14 -12 39 -34
55 -48 28 -25 191 -162 225 -189 8 -6 42 -33 75 -60 59 -48 187 -146 335 -255
142 -105 407 -280 645 -425 615 -376 1393 -715 2125 -927 233 -67 665 -172
785 -191 11 -1 85 -14 165 -28 80 -14 162 -28 183 -31 20 -3 52 -8 70 -11 136
-20 401 -51 527 -61 41 -3 89 -7 105 -9 231 -27 1055 -27 1365 0 25 2 79 7
120 10 41 3 89 8 105 10 17 2 57 7 90 10 124 12 398 48 460 61 11 3 36 7 55
10 60 9 353 64 390 73 19 5 163 41 320 80 330 83 301 75 494 135 259 81 675
236 848 315 46 21 98 43 108 46 37 11 515 248 640 317 25 13 77 42 115 63 266
146 671 409 945 613 96 72 180 134 185 139 22 18 74 59 110 88 22 17 58 46 80
65 23 19 61 51 86 72 65 53 159 136 289 253 144 131 542 538 660 675 12 14 43
50 69 80 27 30 70 82 97 115 26 33 51 62 54 65 8 7 148 184 198 250 23 30 45
60 50 65 35 43 214 299 297 425 270 409 534 888 710 1290 20 47 47 108 60 135
75 165 233 593 304 825 23 74 50 162 61 195 18 59 41 139 46 161 1 6 18 76 39
155 20 79 38 151 40 160 2 9 13 61 25 115 12 55 23 108 26 119 8 42 53 282 58
315 20 125 46 303 51 350 3 30 8 65 10 76 3 12 7 50 10 85 3 35 8 80 11 99 3
19 7 69 10 110 3 41 7 91 9 110 27 262 27 1047 0 1350 -2 25 -7 81 -10 125
-12 141 -24 258 -30 295 -2 14 -7 49 -10 79 -4 30 -8 61 -10 70 -2 9 -6 44
-10 76 -4 33 -9 69 -11 80 -7 36 -13 69 -19 115 -10 69 -81 423 -105 525 -12
50 -23 97 -25 105 -2 8 -17 69 -34 135 -18 66 -33 127 -35 135 -52 209 -224
713 -339 996 -128 314 -402 879 -495 1024 -9 14 -17 27 -17 30 0 3 -27 50 -60
105 -33 55 -64 108 -70 117 -22 37 -92 148 -164 258 -42 63 -80 123 -86 132
-39 65 -218 309 -403 548 -85 109 -302 363 -441 515 -133 145 -527 530 -661
645 -14 12 -38 34 -55 48 -26 24 -183 155 -225 189 -149 119 -260 205 -410
315 -89 66 -437 298 -530 354 -36 21 -67 41 -70 44 -3 3 -16 11 -30 19 -14 8
-77 45 -140 81 -638 369 -1325 661 -2015 858 -145 41 -411 111 -455 119 -14 2
-42 8 -63 14 -87 23 -502 101 -610 114 -23 3 -49 7 -57 9 -13 4 -96 15 -155
21 -25 3 -131 16 -165 20 -14 2 -56 7 -95 10 -38 4 -83 8 -100 10 -16 2 -77 6
-135 10 -58 4 -121 9 -140 12 -39 5 -897 13 -902 8z m741 -2129 c69 -4 144 -9
166 -11 47 -4 175 -16 225 -21 41 -4 124 -13 160 -19 14 -2 45 -6 70 -10 25
-4 56 -8 70 -10 39 -5 113 -17 135 -21 11 -2 32 -6 47 -9 82 -15 234 -47 313
-65 50 -12 110 -26 135 -32 83 -19 294 -79 430 -123 759 -245 1397 -577 2065
-1075 55 -41 102 -77 105 -80 3 -3 48 -40 100 -83 52 -42 111 -90 130 -108 19
-17 64 -56 100 -87 88 -76 449 -438 536 -536 38 -43 74 -83 79 -90 224 -249
569 -729 737 -1023 37 -67 56 -99 81 -143 38 -64 236 -459 280 -557 48 -108
162 -395 199 -503 42 -123 118 -361 123 -387 2 -13 6 -26 9 -31 6 -11 93 -355
101 -402 3 -19 10 -51 15 -70 11 -43 14 -58 45 -240 13 -80 27 -167 30 -195 4
-27 8 -57 10 -65 2 -8 7 -43 10 -78 4 -35 8 -72 10 -82 2 -10 7 -60 10 -111 4
-51 8 -100 10 -109 2 -9 7 -90 11 -180 15 -321 7 -721 -21 -1000 -3 -30 -7
-78 -10 -105 -2 -28 -6 -64 -9 -80 -2 -17 -8 -55 -11 -85 -3 -30 -8 -62 -10
-70 -2 -8 -7 -37 -10 -65 -6 -55 -25 -165 -56 -320 -116 -585 -318 -1174 -586
-1710 -69 -137 -90 -177 -158 -300 -223 -404 -547 -858 -879 -1230 -100 -113
-457 -470 -555 -555 -41 -36 -79 -69 -85 -75 -270 -243 -764 -589 -1156 -809
-86 -48 -455 -233 -550 -275 -265 -118 -662 -263 -895 -326 -86 -24 -395 -103
-425 -109 -198 -40 -334 -65 -375 -70 -27 -4 -57 -9 -65 -11 -8 -2 -37 -6 -65
-10 -27 -3 -61 -7 -75 -10 -14 -2 -45 -7 -70 -9 -25 -3 -63 -7 -85 -10 -349
-43 -969 -52 -1290 -21 -22 2 -71 7 -110 10 -79 7 -124 11 -240 26 -150 19
-153 20 -243 35 -12 2 -50 9 -85 14 -139 24 -321 63 -472 101 -88 23 -167 42
-175 44 -204 51 -645 209 -935 335 -113 49 -405 192 -487 238 -21 12 -68 38
-105 58 -90 49 -340 201 -379 231 -17 13 -36 23 -42 23 -6 0 -12 3 -14 8 -1 4
-46 36 -98 71 -457 309 -971 772 -1360 1226 -14 17 -61 75 -105 130 -44 55
-82 102 -85 105 -42 38 -304 417 -428 617 -140 227 -346 614 -426 803 -10 25
-30 70 -43 100 -129 290 -318 861 -368 1110 -2 8 -8 33 -13 55 -10 36 -52 241
-66 320 -3 17 -8 39 -10 50 -2 11 -7 45 -11 75 -4 30 -9 64 -11 75 -5 22 -21
143 -30 215 -3 25 -7 55 -9 66 -2 12 -6 59 -10 105 -4 46 -8 102 -10 124 -23
252 -23 808 0 1060 2 28 7 77 10 110 14 153 21 217 30 265 2 11 6 43 9 72 4
29 8 64 11 78 2 14 11 68 20 120 9 52 19 109 22 125 10 59 54 262 79 360 14
55 27 107 29 116 22 109 160 530 248 754 144 369 367 812 565 1125 110 174
271 407 351 510 40 52 82 106 104 134 22 30 164 202 182 222 5 6 44 49 85 95
83 94 424 437 511 514 163 145 229 201 374 314 72 56 135 105 140 109 6 4 53
38 105 75 52 38 103 75 113 83 10 8 29 20 43 26 13 6 24 15 24 20 0 4 5 8 10
8 6 0 32 15 58 33 26 18 103 67 172 109 443 269 910 488 1370 643 207 69 323
105 341 105 9 0 19 3 23 7 3 4 12 8 19 9 7 1 59 14 117 29 58 15 113 29 123
31 10 2 26 5 35 8 9 3 32 8 51 11 19 3 37 8 41 10 3 2 17 6 31 9 93 17 207 39
224 42 45 9 274 43 325 49 30 3 66 7 80 10 52 9 98 14 180 20 47 3 103 8 125
10 22 2 108 7 190 11 83 3 151 7 152 8 5 4 432 -2 542 -8z"/>
<path d="M12020 9997 c-3 -3 -27 -7 -55 -10 -70 -7 -169 -42 -229 -81 -129
-84 -188 -194 -241 -449 -2 -10 -6 -26 -9 -35 -3 -9 -7 -28 -10 -42 -2 -14
-39 -173 -81 -355 -42 -181 -78 -337 -80 -345 -2 -8 -9 -37 -15 -65 -7 -27
-14 -59 -15 -70 -2 -11 -11 -51 -20 -90 -22 -91 -23 -238 -2 -286 37 -84 108
-135 222 -160 69 -14 1124 -20 1235 -7 90 12 197 65 251 126 56 63 91 143 123
282 15 63 38 162 51 220 13 58 27 116 29 130 3 14 13 57 22 95 8 39 17 79 20
90 6 30 11 52 32 138 l19 77 -31 1 c-198 5 -919 0 -925 -7 -5 -5 -30 -103 -56
-219 -26 -115 -50 -216 -52 -222 -4 -10 10 -13 52 -13 49 0 56 -2 51 -17 -4
-15 -16 -70 -21 -93 -13 -67 -58 -120 -101 -120 -28 0 -55 36 -49 64 18 88 59
275 75 341 10 44 33 141 50 215 82 354 92 389 117 415 36 36 78 34 98 -5 18
-35 18 -27 0 -87 -8 -26 -13 -49 -10 -51 8 -8 837 -4 844 4 18 20 65 273 65
349 1 138 -54 211 -194 257 -63 22 -81 22 -610 25 -301 2 -548 2 -550 0z"/>
<path d="M3290 9960 c-4 -8 -15 -51 -25 -95 -9 -44 -18 -87 -20 -95 -2 -8 -18
-76 -35 -150 -17 -74 -43 -182 -56 -240 -14 -58 -27 -118 -30 -135 -3 -16 -9
-43 -14 -60 -5 -16 -18 -70 -29 -120 -11 -49 -34 -151 -51 -225 -18 -74 -33
-142 -35 -150 -2 -8 -17 -76 -35 -150 -17 -74 -42 -184 -56 -245 -14 -60 -34
-147 -45 -193 -11 -46 -19 -89 -16 -95 3 -9 105 -12 418 -11 228 1 417 2 420
3 5 1 13 31 34 126 2 11 27 119 55 240 60 255 51 217 86 373 26 113 39 147 40
105 1 -16 9 -120 19 -243 2 -25 7 -83 10 -130 6 -84 10 -134 20 -260 3 -36 7
-96 10 -134 3 -38 8 -72 11 -75 3 -3 127 -6 275 -6 l270 -1 23 46 c12 25 52
99 88 165 36 66 81 149 100 185 66 123 127 235 162 300 20 36 48 88 63 117 15
29 29 51 31 48 4 -4 -41 -216 -58 -270 -5 -16 -11 -43 -14 -60 -3 -16 -12 -59
-21 -95 -8 -36 -19 -85 -25 -110 -5 -25 -12 -54 -14 -65 -20 -79 -56 -240 -56
-249 0 -8 115 -11 419 -11 231 0 422 2 425 6 4 4 49 187 71 289 2 8 49 213
106 455 56 242 108 469 116 505 8 36 16 70 17 75 8 28 19 76 61 260 25 110 47
209 49 221 2 11 12 50 21 87 9 36 14 70 12 74 -4 6 -1063 10 -1162 4 -13 -1
-26 -15 -37 -39 -9 -20 -39 -77 -65 -127 -27 -49 -73 -135 -102 -190 -30 -55
-66 -122 -81 -150 -15 -27 -47 -87 -71 -132 -24 -45 -44 -81 -45 -80 -1 1 -5
49 -9 107 -3 58 -8 125 -10 150 -5 58 -13 163 -20 270 -9 127 -15 183 -21 189
-2 3 -266 5 -585 5 -507 1 -582 -1 -589 -14z"/>
<path d="M8428 9968 c-13 -3 -20 -6 -16 -7 3 -1 2 -17 -4 -37 -5 -20 -11 -46
-14 -58 -2 -11 -11 -52 -19 -91 -9 -38 -18 -80 -21 -92 -2 -13 -5 -25 -6 -28
0 -2 -6 -26 -13 -52 l-12 -48 -101 -3 -101 -3 -11 -37 c-5 -21 -21 -89 -35
-152 -15 -63 -28 -117 -31 -122 -6 -10 -3 -10 111 -12 84 -1 90 -2 87 -21 -2
-11 -33 -144 -68 -295 -36 -151 -66 -284 -68 -295 -3 -11 -21 -90 -41 -175
-19 -85 -38 -166 -41 -180 -3 -14 -16 -72 -30 -128 -13 -57 -24 -111 -24 -120
0 -16 34 -17 419 -17 231 0 422 2 425 5 2 3 7 17 9 30 3 14 10 45 17 70 7 25
14 54 16 65 2 11 33 148 69 305 79 339 63 268 124 535 28 121 51 220 51 221 0
0 49 0 109 0 l110 -1 12 45 c7 25 13 47 14 50 1 5 11 56 19 95 2 11 11 46 19
78 l15 57 -109 0 c-81 0 -109 3 -109 13 0 6 10 50 21 97 11 47 22 96 25 110 2
14 7 33 10 42 3 10 7 30 10 45 3 16 10 45 15 67 6 21 8 41 4 44 -8 8 -808 9
-837 0z"/>
<path d="M13597 9972 c-9 -2 -17 -5 -17 -6 0 -1 -16 -72 -36 -157 -19 -85 -38
-165 -40 -179 -3 -14 -10 -42 -15 -63 -6 -22 -19 -76 -29 -120 -10 -45 -28
-125 -40 -177 -12 -52 -23 -102 -25 -111 -2 -8 -10 -44 -18 -80 -22 -93 -47
-201 -51 -224 -3 -11 -16 -69 -31 -130 -14 -60 -28 -119 -30 -130 -3 -11 -9
-38 -14 -60 -17 -68 -24 -99 -28 -119 -2 -11 -24 -106 -48 -211 -25 -106 -45
-196 -45 -201 0 -13 837 -12 848 1 5 6 14 37 21 70 7 33 26 116 42 185 17 69
37 155 45 191 l16 65 261 0 c459 -2 566 22 697 153 92 91 125 171 195 466 26
110 49 210 51 223 3 13 17 76 32 140 50 213 28 330 -75 399 -61 40 -104 54
-213 69 -45 7 -1421 12 -1453 6z m830 -471 c36 -3 49 -63 28 -130 -3 -10 -7
-28 -9 -38 -3 -10 -11 -48 -20 -84 -8 -37 -17 -78 -20 -90 -18 -98 -48 -156
-85 -163 -115 -24 -115 -24 -86 99 13 55 38 163 55 240 17 77 34 147 36 155 4
15 29 17 101 11z"/>
<path d="M6460 9549 c-155 -26 -227 -53 -297 -114 -77 -66 -110 -143 -163
-376 -17 -75 -33 -145 -35 -155 -2 -11 -31 -136 -65 -279 -70 -299 -74 -320
-73 -397 2 -129 93 -201 289 -226 78 -9 1103 -9 1175 1 31 4 67 10 79 12 89
17 197 74 249 131 36 39 99 144 86 144 -3 0 -1 8 4 18 5 10 33 119 61 242 28
124 60 261 70 305 25 106 70 304 76 334 3 14 7 29 10 33 11 18 4 145 -10 179
-31 75 -116 124 -251 145 -90 14 -1126 17 -1205 3z m571 -336 c24 -21 24 -25
-52 -346 -27 -114 -51 -220 -54 -235 -3 -15 -18 -80 -34 -145 -37 -152 -64
-185 -138 -165 -59 15 -59 13 31 398 13 58 38 166 55 240 53 236 65 263 121
272 30 5 50 0 71 -19z"/>
<path d="M9830 9544 c-112 -19 -117 -21 -185 -54 -72 -35 -132 -95 -170 -170
-21 -41 -132 -477 -170 -670 -3 -14 -22 -99 -44 -190 -46 -199 -47 -265 -7
-334 38 -65 125 -108 253 -123 88 -10 1098 -10 1183 0 93 12 136 24 215 62
103 49 167 124 201 235 12 36 175 730 190 805 7 36 13 60 22 90 5 17 10 60 11
97 5 148 -72 222 -264 253 -114 19 -1128 18 -1235 -1z m601 -330 c22 -27 20
-34 -132 -684 -35 -152 -41 -168 -64 -190 -25 -24 -70 -29 -103 -11 -28 15
-29 54 -2 164 15 64 88 377 114 492 39 170 50 205 69 223 35 32 94 35 118 6z"/>
</g>
</svg>
